<svg width="24" height="18" viewBox="0 0 24 18" fill="none" xmlns="http://www.w3.org/2000/svg">
<mask id="mask0_581_20693" style="mask-type:alpha" maskUnits="userSpaceOnUse" x="0" y="0" width="24" height="18">
<rect width="24" height="18" fill="#016FD0"/>
</mask>
<g mask="url(#mask0_581_20693)">
<rect width="24" height="18" rx="1.46491" fill="#016FD0"/>
<path d="M4.66821 13.7704V9.64075H8.666L9.09492 10.2523L9.53803 9.64075H24.049V13.4856C24.049 13.4856 23.6695 13.7663 23.2306 13.7704H15.1956L14.712 13.1195V13.7704H13.1273V12.6592C13.1273 12.6592 12.9109 12.8143 12.4429 12.8143H11.9035V13.7704H9.50412L9.07581 13.1458L8.64092 13.7704H4.66821Z" fill="white"/>
<path d="M0 6.52829L0.901518 4.22949H2.4606L2.97222 5.51718V4.22949H4.9103L5.21487 5.1602L5.51014 4.22949H14.2101V4.69739C14.2101 4.69739 14.6675 4.22949 15.4191 4.22949L18.2419 4.24028L18.7447 5.51112V4.22949H20.3666L20.813 4.95949V4.22949H22.4497V8.35919H20.813L20.3852 7.62683V8.35919H18.0023L17.7626 7.7082H17.122L16.8863 8.35919H15.2703C14.6235 8.35919 14.2101 7.90085 14.2101 7.90085V8.35919H11.7736L11.29 7.7082V8.35919H2.22963L1.99016 7.7082H1.3516L1.11382 8.35919H0V6.52829Z" fill="white"/>
<path d="M1.2201 4.73853L0.00415039 7.83071H0.795797L1.02016 7.21151H2.32445L2.54765 7.83071H3.35673L2.14194 4.73853H1.2201ZM1.66998 5.45817L2.06755 6.54019H1.27125L1.66998 5.45817Z" fill="#016FD0"/>
<path d="M3.44043 7.82998V4.73779L4.5654 4.74236L5.21973 6.73601L5.85838 4.73779H6.97436V7.82998H6.26757V5.55153L5.51836 7.82998H4.89851L4.14722 5.55153V7.82998H3.44043Z" fill="#016FD0"/>
<path d="M7.4585 7.83001V4.73779H9.76487V5.42948H8.17273V5.9584H9.72767V6.6094H8.17273V7.15867H9.76487V7.83001H7.4585Z" fill="#016FD0"/>
<path d="M10.1733 4.73853V7.83074H10.8801V6.73219H11.1777L12.0252 7.83074H12.8889L11.9589 6.69151C12.3406 6.65628 12.7343 6.29798 12.7343 5.74172C12.7343 5.09101 12.2673 4.73853 11.7462 4.73853H10.1733ZM10.8801 5.4302H11.6881C11.8819 5.4302 12.0229 5.59602 12.0229 5.7557C12.0229 5.96113 11.8402 6.0812 11.6985 6.0812H10.8801V5.4302Z" fill="#016FD0"/>
<path d="M13.7456 7.83001H13.0239V4.73779H13.7456V7.83001Z" fill="#016FD0"/>
<path d="M15.4564 7.83001H15.3007C14.547 7.83001 14.0894 7.18055 14.0894 6.29662C14.0894 5.39085 14.5418 4.73779 15.4936 4.73779H16.2748V5.47016H15.4651C15.0787 5.47016 14.8054 5.79996 14.8054 6.30424C14.8054 6.90309 15.1179 7.15461 15.568 7.15461H15.754L15.4564 7.83001Z" fill="#016FD0"/>
<path d="M16.995 4.73853L15.7791 7.83071H16.5707L16.7951 7.21151H18.0994L18.3226 7.83071H19.1316L17.9168 4.73853H16.995ZM17.4449 5.45817L17.8424 6.54019H17.0462L17.4449 5.45817Z" fill="#016FD0"/>
<path d="M19.2134 7.83001V4.73779H20.112L21.2594 6.6806V4.73779H21.9661V7.83001H21.0966L19.9202 5.83634V7.83001H19.2134Z" fill="#016FD0"/>
<path d="M5.1521 13.2416V10.1494H7.45847V10.8411H5.86633V11.37H7.42127V12.021H5.86633V12.5703H7.45847V13.2416H5.1521Z" fill="#016FD0"/>
<path d="M16.4529 13.2416V10.1494H18.7593V10.8411H17.1671V11.37H18.7146V12.021H17.1671V12.5703H18.7593V13.2416H16.4529Z" fill="#016FD0"/>
<path d="M7.54822 13.2416L8.67117 11.7146L7.52148 10.1494H8.41194L9.09664 11.117L9.78366 10.1494H10.6392L9.50467 11.6955L10.6297 13.2416H9.73937L9.07455 12.2893L8.42589 13.2416H7.54822Z" fill="#016FD0"/>
<path d="M10.7129 10.1498V13.242H11.4383V12.2655H12.1823C12.8118 12.2655 13.289 11.9002 13.289 11.1898C13.289 10.6014 12.9147 10.1498 12.2741 10.1498H10.7129ZM11.4383 10.8491H12.2218C12.4252 10.8491 12.5705 10.9854 12.5705 11.2051C12.5705 11.4115 12.4259 11.5611 12.2195 11.5611H11.4383V10.8491Z" fill="#016FD0"/>
<path d="M13.5962 10.1494V13.2416H14.303V12.1431H14.6006L15.448 13.2416H16.3118L15.3818 12.1024C15.7634 12.0672 16.1572 11.7089 16.1572 11.1526C16.1572 10.5019 15.6902 10.1494 15.169 10.1494H13.5962ZM14.303 10.8411H15.1109C15.3047 10.8411 15.4457 11.0069 15.4457 11.1666C15.4457 11.372 15.263 11.4921 15.1214 11.4921H14.303V10.8411Z" fill="#016FD0"/>
<path d="M19.0871 13.2416V12.5703H20.5016C20.7109 12.5703 20.8015 12.4466 20.8015 12.3109C20.8015 12.1809 20.7112 12.0495 20.5016 12.0495H19.8624C19.3068 12.0495 18.9973 11.6792 18.9973 11.1234C18.9973 10.6276 19.2807 10.1494 20.1063 10.1494H21.4827L21.1851 10.8452H19.9947C19.7672 10.8452 19.6971 10.9758 19.6971 11.1005C19.6971 11.2287 19.7837 11.37 19.9575 11.37H20.6271C21.2465 11.37 21.5153 11.7543 21.5153 12.2575C21.5153 12.7985 21.2158 13.2416 20.5934 13.2416H19.0871Z" fill="#016FD0"/>
<path d="M21.6806 13.2416V12.5703H23.0951C23.3044 12.5703 23.395 12.4466 23.395 12.3109C23.395 12.1809 23.3047 12.0495 23.0951 12.0495H22.4559C21.9003 12.0495 21.5908 11.6792 21.5908 11.1234C21.5908 10.6276 21.8742 10.1494 22.6998 10.1494H24.0481L23.7786 10.8452H22.5882C22.3607 10.8452 22.2906 10.9758 22.2906 11.1005C22.2906 11.2287 22.3772 11.37 22.551 11.37H23.2206C23.84 11.37 24.1088 11.7543 24.1088 12.2575C24.1088 12.7985 23.8093 13.2416 23.1869 13.2416H21.6806Z" fill="#016FD0"/>
</g>
</svg>
