<svg width="24" height="18" viewBox="0 0 24 18" fill="none" xmlns="http://www.w3.org/2000/svg">
<rect width="24" height="18" rx="1.46491" fill="#232342"/>
<path d="M10.4573 18L24.0001 13.6875V16.5351C24.0001 17.3441 23.3443 18 22.5352 18H10.4573Z" fill="#FD6020"/>
<path d="M9.8584 7.20837C10.1191 7.20842 10.4172 7.24846 10.6406 7.40955V8.21521C10.4544 7.97357 10.1563 7.81303 9.8584 7.81287C9.26234 7.85316 8.7772 8.41717 8.81445 9.06189V9.14197C8.81445 9.78669 9.29945 10.2709 9.89551 10.2709C10.1934 10.2708 10.4544 10.1092 10.6406 9.86755V10.6732C10.3799 10.7941 10.1183 10.8754 9.82031 10.8754C8.88929 10.8751 8.14474 10.0289 8.14453 9.02185C8.14453 7.97418 8.88981 7.12778 9.8584 7.20837ZM15.707 9.62634L16.6006 7.20837H17.2715L15.8926 10.8754H15.5576L14.1797 7.20837H14.8496L15.707 9.62634ZM6.87793 7.12732C7.21306 7.1274 7.54791 7.28901 7.80859 7.53064L7.47363 8.01404C7.32463 7.85289 7.13839 7.73181 6.95215 7.73181C6.72866 7.69157 6.54213 7.89339 6.50488 8.13513C6.50496 8.33645 6.61689 8.41738 6.98926 8.57849C7.73408 8.90075 7.92067 9.14215 7.95801 9.62537V9.74646C7.92076 10.3911 7.43671 10.8744 6.84082 10.8344C6.39378 10.8344 5.94618 10.593 5.72266 10.1498L6.13281 9.70642C6.24453 9.98832 6.50491 10.1896 6.80273 10.1898H6.84082C7.06415 10.1895 7.28698 9.94818 7.28711 9.66638C7.28711 9.50522 7.2133 9.38369 7.10156 9.3031C6.95258 9.22253 6.80328 9.14223 6.6543 9.10193C6.05833 8.90048 5.87212 8.61855 5.87207 8.13513V8.09509C5.90932 7.53096 6.35638 7.08702 6.87793 7.12732ZM3.00293 7.20837C3.897 7.24868 4.60561 8.05477 4.56836 9.02185C4.56824 9.54553 4.34411 10.0294 3.97168 10.392C3.63655 10.6738 3.22691 10.8345 2.81738 10.7943H1.88574V7.20837H3.00293ZM5.46191 10.7943H4.8291V7.20837H5.46191V10.7943ZM19.3574 7.81287H18.2031V8.61853H19.3203V9.22302H18.2031V10.1898H19.3574V10.7943H17.5693V7.20837H19.3574V7.81287ZM20.6992 7.20837C21.4439 7.20855 21.8535 7.57137 21.8535 8.25623C21.8906 8.77981 21.5552 9.22342 21.1084 9.30408L22.1143 10.7943H21.332L20.4756 9.34412H20.4014V10.7943H19.7676V7.20837H20.6992ZM2.70508 7.81287H2.51953V10.1898H2.70508C3.00304 10.2301 3.33899 10.11 3.5625 9.90857C3.78588 9.66695 3.89732 9.34419 3.89746 8.98181C3.89746 8.65964 3.78576 8.33682 3.5625 8.09509C3.33898 7.89362 3.0031 7.77257 2.70508 7.81287ZM20.4014 8.86072H20.5869C20.9965 8.86064 21.1835 8.65871 21.1836 8.29626C21.1836 7.97401 20.9965 7.7729 20.5869 7.77283H20.4014V8.86072Z" fill="white"/>
<path fill-rule="evenodd" clip-rule="evenodd" d="M12.5406 7.125C11.6092 7.125 10.8269 7.9309 10.8269 8.97858C10.8269 9.98596 11.572 10.8322 12.5406 10.8725C13.5091 10.9128 14.2542 10.0666 14.2915 9.01887C14.2542 7.9712 13.5091 7.125 12.5406 7.125V7.125Z" fill="#FD6020"/>
</svg>
