<svg width="36" height="36" viewBox="0 0 36 36" fill="none" xmlns="http://www.w3.org/2000/svg">
<path d="M18 36C8.05263 36 0 27.9474 0 18C0 8.05263 8.05263 0 18 0C27.9474 0 36 8.05263 36 18C36 27.9474 27.9474 36 18 36Z" fill="#323232"/>
<path d="M15.2527 28.894H19.6106V17.9045H22.6422L22.9264 14.2098H19.5159C19.5159 14.2098 19.5159 12.7887 19.5159 12.1255C19.5159 11.2729 19.7053 10.894 20.558 10.894C21.2211 10.894 22.9264 10.894 22.9264 10.894V7.10449C22.9264 7.10449 20.4632 7.10449 19.8948 7.10449C16.6738 7.10449 15.158 8.52554 15.158 11.2729C15.158 13.6413 15.158 14.2098 15.158 14.2098H12.8843V17.9045H15.158V28.894H15.2527Z" fill="#F4B44B"/>
</svg>
