<svg width="16" height="16" viewBox="0 0 16 16" fill="none" xmlns="http://www.w3.org/2000/svg">
<rect width="16" height="16" rx="8" fill="#F5F5F5"/>
<path d="M7.13333 13V6.415H8.85714V13H7.13333ZM8 5.19655C7.72698 5.19655 7.49206 5.09036 7.29524 4.87797C7.09841 4.66185 7 4.40289 7 4.10107C7 3.79553 7.09841 3.53656 7.29524 3.32417C7.49206 3.10806 7.72698 3 8 3C8.27619 3 8.51111 3.10806 8.70476 3.32417C8.90159 3.53656 9 3.79553 9 4.10107C9 4.40289 8.90159 4.66185 8.70476 4.87797C8.51111 5.09036 8.27619 5.19655 8 5.19655Z" fill="#0E0E0E"/>
</svg>
