<svg width="36" height="36" viewBox="0 0 36 36" fill="none" xmlns="http://www.w3.org/2000/svg">
<path d="M18 36C8.05263 36 0 27.9474 0 18C0 8.05263 8.05263 0 18 0C27.9474 0 36 8.05263 36 18C36.0947 27.9474 27.9474 36 18 36Z" fill="#323232"/>
<path d="M17.9998 9.85273C20.6525 9.85273 20.9367 9.85273 21.9788 9.94747C22.9262 9.94747 23.4946 10.1369 23.7788 10.3264C24.2525 10.5159 24.5367 10.7054 24.9156 11.0843C25.2946 11.4633 25.4841 11.7475 25.6735 12.2212C25.7683 12.6001 25.9577 13.0738 26.0525 14.0212C26.1472 15.0633 26.1472 15.3475 26.1472 18.0001C26.1472 20.6527 26.1472 20.9369 26.0525 21.9791C26.0525 22.9264 25.863 23.4948 25.6735 23.7791C25.4841 24.2527 25.2946 24.5369 24.9156 24.9159C24.5367 25.2948 24.2525 25.4843 23.7788 25.6738C23.3998 25.7685 22.9262 25.958 21.9788 26.0527C20.9367 26.0527 20.6525 26.1475 17.9998 26.1475C15.3472 26.1475 15.063 26.1475 14.0209 26.0527C13.0735 26.0527 12.5051 25.8633 12.2209 25.6738C11.7472 25.4843 11.463 25.2948 11.0841 24.9159C10.7051 24.5369 10.5156 24.2527 10.3262 23.7791C10.2314 23.4001 10.0419 22.9264 9.94721 21.9791C9.94721 20.9369 9.85248 20.6527 9.85248 18.0001C9.85248 15.3475 9.85247 15.0633 9.94721 14.0212C9.94721 13.0738 10.1367 12.5054 10.3262 12.2212C10.5156 11.7475 10.7051 11.4633 11.0841 11.0843C11.463 10.7054 11.7472 10.5159 12.2209 10.3264C12.5999 10.2317 13.0735 10.0422 14.0209 9.94747C15.063 9.85273 15.4419 9.85273 17.9998 9.85273ZM17.9998 8.05273C15.3472 8.05273 14.9683 8.05273 13.9262 8.14747C12.884 8.24221 12.1262 8.33694 11.5577 8.62115C10.8946 8.90537 10.3262 9.18958 9.85248 9.758C9.28406 10.3264 8.99984 10.8948 8.71563 11.4633C8.43142 12.1264 8.33668 12.7896 8.24194 13.8317C8.14721 14.8738 8.14722 15.2527 8.14722 17.9054C8.14722 20.558 8.14721 20.9369 8.24194 21.9791C8.33668 23.0212 8.43142 23.7791 8.71563 24.3475C8.99984 25.0106 9.28406 25.5791 9.85248 26.0527C10.4209 26.6212 10.9893 26.9054 11.5577 27.1896C12.2209 27.4738 12.884 27.5685 13.9262 27.6633C14.9683 27.758 15.3472 27.758 17.9998 27.758C20.6525 27.758 21.0314 27.758 22.0735 27.6633C23.1156 27.5685 23.8735 27.4738 24.4419 27.1896C25.1051 26.9054 25.6735 26.6212 26.1472 26.0527C26.7156 25.4843 26.9998 24.9159 27.2841 24.3475C27.5683 23.6843 27.663 23.0212 27.7577 21.9791C27.8525 20.9369 27.8525 20.558 27.8525 17.9054C27.8525 15.2527 27.8525 14.8738 27.7577 13.8317C27.663 12.7896 27.5683 12.0317 27.2841 11.4633C26.9998 10.8001 26.7156 10.2317 26.1472 9.758C25.5788 9.18958 25.0104 8.90537 24.4419 8.62115C23.7788 8.33694 23.1156 8.24221 22.0735 8.14747C21.0314 8.14747 20.7472 8.05273 17.9998 8.05273Z" fill="#F4B44B"/>
<path d="M17.9996 12.8818C15.1575 12.8818 12.8838 15.1555 12.8838 17.9976C12.8838 20.8397 15.1575 23.1134 17.9996 23.1134C20.8417 23.1134 23.1154 20.8397 23.1154 17.9976C23.1154 15.1555 20.8417 12.8818 17.9996 12.8818ZM17.9996 21.3134C16.1996 21.3134 14.6838 19.7976 14.6838 17.9976C14.6838 16.1976 16.1996 14.6818 17.9996 14.6818C19.7996 14.6818 21.3154 16.1976 21.3154 17.9976C21.3154 19.7976 19.8943 21.3134 17.9996 21.3134Z" fill="#F4B44B"/>
<path d="M24.5362 12.6945C24.5362 13.3576 23.9677 13.926 23.3046 13.926C22.6414 13.926 22.073 13.3576 22.073 12.6945C22.073 12.0313 22.6414 11.4629 23.3046 11.4629C23.9677 11.5576 24.5362 12.0313 24.5362 12.6945Z" fill="#F4B44B"/>
</svg>
