<svg width="24" height="18" viewBox="0 0 24 18" fill="none" xmlns="http://www.w3.org/2000/svg">
<rect width="24" height="18" rx="1.46491" fill="black"/>
<path d="M15.2061 3.75C17.7901 3.75 19.8855 6.06767 19.8857 8.92676C19.8857 11.7861 17.7903 14.1045 15.2061 14.1045C14.0474 14.1044 12.9881 13.6372 12.1709 12.8652C11.3537 13.637 10.2944 14.1045 9.13574 14.1045C6.55172 14.1042 4.45703 11.7859 4.45703 8.92676C4.45727 6.06783 6.55186 3.75027 9.13574 3.75C10.2942 3.75 11.3537 4.21677 12.1709 4.98828C12.988 4.21661 14.0476 3.7501 15.2061 3.75Z" fill="#ED0006"/>
<path d="M15.2065 3.75C17.7906 3.75002 19.885 6.06768 19.8853 8.92676C19.8853 11.7861 17.7908 14.1045 15.2065 14.1045C14.0478 14.1045 12.9886 13.6371 12.1714 12.8652C13.1768 11.9156 13.8149 10.504 13.8149 8.92676C13.8148 7.34948 13.1769 5.93778 12.1714 4.98828C12.9886 4.21665 14.048 3.75 15.2065 3.75Z" fill="#F9A000"/>
<path d="M12.1709 4.98877C13.1765 5.93836 13.8154 7.34979 13.8154 8.92725C13.8154 10.5044 13.1762 11.9152 12.1709 12.8647C11.1658 11.9152 10.5273 10.5042 10.5273 8.92725C10.5274 7.35004 11.1655 5.93835 12.1709 4.98877Z" fill="#FF5E00"/>
</svg>
