<svg width="36" height="36" viewBox="0 0 36 36" fill="none" xmlns="http://www.w3.org/2000/svg">
<path d="M18 36C8.05263 36 0 27.9474 0 18C0 8.05263 8.05263 0 18 0C27.9474 0 36 8.05263 36 18C36.0947 27.9474 27.9474 36 18 36Z" fill="#323232"/>
<path d="M12.2207 19.7044C12.505 19.7992 12.7892 19.7044 12.8839 19.4202C12.9786 19.2307 13.0734 18.6623 13.1681 18.4729C13.2629 18.1886 13.2628 18.0939 12.9786 17.8097C12.5049 17.2413 12.126 16.4834 12.126 15.4413C12.126 12.315 14.4944 9.56759 18.1892 9.56759C21.5049 9.56759 23.305 11.5571 23.305 14.3044C23.305 17.8097 21.6944 20.8413 19.4207 20.8413C18.0944 20.8413 17.1471 19.7992 17.526 18.4729C17.9049 16.9571 18.5681 15.2518 18.5681 14.115C18.5681 13.0729 17.9997 12.315 16.8628 12.315C15.5365 12.315 14.4944 13.6413 14.4944 15.536C14.4944 16.6729 14.8734 17.5255 14.8734 17.5255C14.8734 17.5255 13.5471 23.2097 13.2628 24.2518C12.7892 26.2413 13.1681 28.7044 13.2628 28.8939C13.2628 29.0834 13.4523 29.0834 13.5471 28.9886C13.6418 28.7992 15.2523 26.9044 15.726 25.0097C15.9155 24.4413 16.5786 21.5992 16.5786 21.5992C17.0523 22.4518 18.2839 23.115 19.6102 23.115C23.5892 23.115 26.2418 19.515 26.2418 14.6834C26.2418 10.9886 23.1155 7.67285 18.4734 7.67285C12.5997 7.67285 9.66284 11.8413 9.66284 15.3465C9.75758 17.0518 10.5155 18.9465 12.2207 19.7044Z" fill="#F4B44B"/>
</svg>
