<svg width="25" height="19" viewBox="0 0 25 19" fill="none" xmlns="http://www.w3.org/2000/svg">
<rect x="0.25" y="0.25" width="24.5" height="18.5" rx="1.71491" fill="white" stroke="#E5E5E5" stroke-width="0.5"/>
<path d="M10.7679 12.5621H9.41089L10.2597 6.8219H11.6166L10.7679 12.5621Z" fill="#142EBD"/>
<path d="M15.6866 6.96228C15.419 6.84613 14.9944 6.7179 14.4695 6.7179C13.1294 6.7179 12.1857 7.4995 12.1799 8.61696C12.1688 9.44141 12.8556 9.89934 13.3692 10.1742C13.8943 10.4551 14.0727 10.6385 14.0727 10.8889C14.0674 11.2734 13.6485 11.4507 13.2578 11.4507C12.716 11.4507 12.4257 11.3593 11.9846 11.1454L11.8059 11.0536L11.616 12.3422C11.9342 12.5008 12.5206 12.6415 13.1294 12.6477C14.5533 12.6477 15.4803 11.8782 15.4913 10.6874C15.4967 10.0339 15.134 9.53321 14.3522 9.12407C13.8776 8.86142 13.5869 8.68432 13.5869 8.41559C13.5925 8.17129 13.8327 7.92106 14.3685 7.92106C14.8097 7.90881 15.1338 8.02479 15.3794 8.14085L15.5021 8.20181L15.6866 6.96228Z" fill="#142EBD"/>
<path d="M17.4911 10.5286C17.6029 10.1988 18.0329 8.92249 18.0329 8.92249C18.0273 8.93474 18.1444 8.58664 18.2114 8.37293L18.3063 8.86754C18.3063 8.86754 18.5633 10.2416 18.6191 10.5286C18.407 10.5286 17.7592 10.5286 17.4911 10.5286ZM19.1662 6.8219H18.1165C17.7929 6.8219 17.5469 6.92563 17.4073 7.29817L15.3916 12.562H16.8155C16.8155 12.562 17.0499 11.8535 17.1003 11.701C17.2565 11.701 18.6416 11.701 18.8426 11.701C18.8815 11.9025 19.0045 12.562 19.0045 12.562H20.261L19.1662 6.8219Z" fill="#142EBD"/>
<path d="M8.27735 6.8219L6.94839 10.7362L6.80317 9.94231C6.55747 9.0263 5.78691 8.03107 4.927 7.53622L6.14429 12.556H7.57929L9.71228 6.8219H8.27735Z" fill="#142EBD"/>
<path d="M5.71443 6.8219H3.53113L3.50879 6.93788C5.2119 7.41423 6.33984 8.56245 6.80326 9.94255L6.32864 7.30442C6.2505 6.9378 6.01037 6.83399 5.71443 6.8219Z" fill="#142EBD"/>
</svg>
