<svg width="36" height="36" viewBox="0 0 36 36" fill="none" xmlns="http://www.w3.org/2000/svg">
<path d="M18 36C8.05263 36 0 27.9474 0 18C0 8.05263 8.05263 0 18 0C27.9474 0 36 8.05263 36 18C36 27.9474 27.9474 36 18 36Z" fill="#323232"/>
<path d="M28.5641 12.4673C28.2746 11.4953 27.5509 10.6729 26.6101 10.4486C24.8733 10 17.9983 10 17.9983 10C17.9983 10 11.1233 10 9.38645 10.4486C8.44566 10.7477 7.72197 11.4953 7.4325 12.4673C6.99829 14.2617 6.99829 18 6.99829 18C6.99829 18 6.99829 21.7383 7.4325 23.5327C7.72197 24.5047 8.44566 25.3271 9.38645 25.5514C11.1233 26 17.9983 26 17.9983 26C17.9983 26 24.8733 26 26.6101 25.5514C27.5509 25.2523 28.2746 24.5047 28.5641 23.5327C28.9983 21.7383 28.9983 18 28.9983 18C28.9983 18 28.9983 14.2617 28.5641 12.4673Z" fill="#F4B44B"/>
<path d="M15.4346 21.7887V14.1255L21.8475 17.9992L15.4346 21.7887Z" fill="#323232"/>
</svg>
